<?xml version="1.0" encoding="utf-8"?>
<svg version="1.1" xmlns:xlink="http://www.w3.org/1999/xlink" width="310px" height="310px" xmlns="http://www.w3.org/2000/svg">
  <defs>
    <pattern id="BGPattern" patternUnits="userSpaceOnUse" alignment="0 0" imageRepeat="None" />
    <mask fill="white" id="Clip23">
      <path d="M 0 0  L 310 0  L 310 310  L 0 310  L 0 0  Z M 162.8791622320811 300.6483213106791  C 162.85332889752073 300.5191546468995  162.7629148956233 300.42874251109123  162.67249822616577 300.41582584381104  C 162.67249822616577 300.41582584381104  162.51749714215595 300.441669623057  162.51749714215595 300.441669623057  L 161.60041252772012 300.89375098546344  L 161.3420855998993 300.94541390736896  L 161.1612530549367 300.89375098546344  C 161.1612530549367 300.89375098546344  160.24416844050089 300.4287600517273  160.24416844050089 300.4287600517273  C 160.11500177672133 300.39001005139045  159.99874960437106 300.42874211561866  159.93416627248126 300.5062421162923  C 159.93416627248126 300.5062421162923  159.88250335057575 300.63541173934937  159.88250335057575 300.63541173934937  L 159.66291745503742 306.16373856862384  L 159.72750226656595 306.4220778147379  L 159.856671889623 306.59000078837073  L 161.19999408721924 307.5458264350891  L 161.3937485218048 307.59748935699463  L 161.5487496058146 307.5458264350891  L 162.8920841217041 306.59000078837073  L 163.0470852057139 306.3833244641622  L 163.09874812761942 306.16373856862384  C 163.09874812761942 306.16373856862384  162.8791622320811 300.6483213106791  162.8791622320811 300.6483213106791  Z M 166.3408366839091 299.2404143015543  C 166.30208668357227 299.085414300207  166.21166410157454 298.9820892473411  166.08249743779498 298.95625591278076  C 166.08249743779498 298.95625591278076  165.90166489283243 298.98207505544025  165.90166489283243 298.98207505544025  L 163.52499802907306 300.18333037694293  L 163.39582840601602 300.3125  L 163.35708737373352 300.4545791943868  L 163.5895828406016 306.0087498029073  L 163.65416765213013 306.16373856862384  L 163.7575058142344 306.26708904902137  C 163.7575058142344 306.26708904902137  166.35374625523883 307.4554101626078  166.35374625523883 307.4554101626078  C 166.50874625658614 307.5070768317285  166.65083323411332 307.45541765703814  166.728333234787 307.35208431879676  C 166.728333234787 307.35208431879676  166.7799961566925 307.17125177383423  166.7799961566925 307.17125177383423  C 166.7799961566925 307.17125177383423  166.3408366839091 299.2404143015543  166.3408366839091 299.2404143015543  Z M 159.22374566396076 300.17042080561316  C 159.22374566396076 300.17042080561316  156.84707880020142 298.98207505544025  156.84707880020142 298.98207505544025  C 156.7884075754167 298.9554205514529  156.7226619872963 298.94858344006934  156.6597545146942 298.9625628789266  C 156.59684704209212 298.9765423177838  156.540195858009 299.01058692407486  156.4983355998993 299.0595817565918  C 156.4983355998993 299.0595817565918  156.42082889874774 299.2404143015543  156.42082889874774 299.2404143015543  C 156.42082889874774 299.2404143015543  155.98166942596436 307.17125177383423  155.98166942596436 307.17125177383423  C 155.98166942596436 307.32625177518156  156.07208865772313 307.4295872727331  156.20125532150269 307.4812539418538  C 156.20125532150269 307.4812539418538  156.39499743779498 307.4554101626078  156.39499743779498 307.4554101626078  L 158.99125019709268 306.2541548411051  L 159.12041982014972 306.15082899729407  L 159.15916085243225 306.0087498029073  L 159.39166863759357 300.4545791943868  L 159.35291528701782 300.29959042867023  L 159.22374566396076 300.17042080561316  Z " fill-rule="evenodd" />
    </mask>
  </defs>
  <g>
    <path d="M 0 0  L 310 0  L 310 310  L 0 310  L 0 0  Z M 162.8791622320811 300.6483213106791  C 162.85332889752073 300.5191546468995  162.7629148956233 300.42874251109123  162.67249822616577 300.41582584381104  C 162.67249822616577 300.41582584381104  162.51749714215595 300.441669623057  162.51749714215595 300.441669623057  L 161.60041252772012 300.89375098546344  L 161.3420855998993 300.94541390736896  L 161.1612530549367 300.89375098546344  C 161.1612530549367 300.89375098546344  160.24416844050089 300.4287600517273  160.24416844050089 300.4287600517273  C 160.11500177672133 300.39001005139045  159.99874960437106 300.42874211561866  159.93416627248126 300.5062421162923  C 159.93416627248126 300.5062421162923  159.88250335057575 300.63541173934937  159.88250335057575 300.63541173934937  L 159.66291745503742 306.16373856862384  L 159.72750226656595 306.4220778147379  L 159.856671889623 306.59000078837073  L 161.19999408721924 307.5458264350891  L 161.3937485218048 307.59748935699463  L 161.5487496058146 307.5458264350891  L 162.8920841217041 306.59000078837073  L 163.0470852057139 306.3833244641622  L 163.09874812761942 306.16373856862384  C 163.09874812761942 306.16373856862384  162.8791622320811 300.6483213106791  162.8791622320811 300.6483213106791  Z M 166.3408366839091 299.2404143015543  C 166.30208668357227 299.085414300207  166.21166410157454 298.9820892473411  166.08249743779498 298.95625591278076  C 166.08249743779498 298.95625591278076  165.90166489283243 298.98207505544025  165.90166489283243 298.98207505544025  L 163.52499802907306 300.18333037694293  L 163.39582840601602 300.3125  L 163.35708737373352 300.4545791943868  L 163.5895828406016 306.0087498029073  L 163.65416765213013 306.16373856862384  L 163.7575058142344 306.26708904902137  C 163.7575058142344 306.26708904902137  166.35374625523883 307.4554101626078  166.35374625523883 307.4554101626078  C 166.50874625658614 307.5070768317285  166.65083323411332 307.45541765703814  166.728333234787 307.35208431879676  C 166.728333234787 307.35208431879676  166.7799961566925 307.17125177383423  166.7799961566925 307.17125177383423  C 166.7799961566925 307.17125177383423  166.3408366839091 299.2404143015543  166.3408366839091 299.2404143015543  Z M 159.22374566396076 300.17042080561316  C 159.22374566396076 300.17042080561316  156.84707880020142 298.98207505544025  156.84707880020142 298.98207505544025  C 156.7884075754167 298.9554205514529  156.7226619872963 298.94858344006934  156.6597545146942 298.9625628789266  C 156.59684704209212 298.9765423177838  156.540195858009 299.01058692407486  156.4983355998993 299.0595817565918  C 156.4983355998993 299.0595817565918  156.42082889874774 299.2404143015543  156.42082889874774 299.2404143015543  C 156.42082889874774 299.2404143015543  155.98166942596436 307.17125177383423  155.98166942596436 307.17125177383423  C 155.98166942596436 307.32625177518156  156.07208865772313 307.4295872727331  156.20125532150269 307.4812539418538  C 156.20125532150269 307.4812539418538  156.39499743779498 307.4554101626078  156.39499743779498 307.4554101626078  L 158.99125019709268 306.2541548411051  L 159.12041982014972 306.15082899729407  L 159.15916085243225 306.0087498029073  L 159.39166863759357 300.4545791943868  L 159.35291528701782 300.29959042867023  L 159.22374566396076 300.17042080561316  Z " fill-rule="nonzero" fill="rgba(255, 255, 255, 0)" stroke="none" class="fill" />
    <path d="M 0 0  L 310 0  L 310 310  L 0 310  L 0 0  Z " stroke-width="0" stroke-dasharray="0" stroke="rgba(121, 121, 121, 1)" fill="none" class="stroke" mask="url(#Clip23)" />
    <path d="M 162.8791622320811 300.6483213106791  C 162.85332889752073 300.5191546468995  162.7629148956233 300.42874251109123  162.67249822616577 300.41582584381104  C 162.67249822616577 300.41582584381104  162.51749714215595 300.441669623057  162.51749714215595 300.441669623057  L 161.60041252772012 300.89375098546344  L 161.3420855998993 300.94541390736896  L 161.1612530549367 300.89375098546344  C 161.1612530549367 300.89375098546344  160.24416844050089 300.4287600517273  160.24416844050089 300.4287600517273  C 160.11500177672133 300.39001005139045  159.99874960437106 300.42874211561866  159.93416627248126 300.5062421162923  C 159.93416627248126 300.5062421162923  159.88250335057575 300.63541173934937  159.88250335057575 300.63541173934937  L 159.66291745503742 306.16373856862384  L 159.72750226656595 306.4220778147379  L 159.856671889623 306.59000078837073  L 161.19999408721924 307.5458264350891  L 161.3937485218048 307.59748935699463  L 161.5487496058146 307.5458264350891  L 162.8920841217041 306.59000078837073  L 163.0470852057139 306.3833244641622  L 163.09874812761942 306.16373856862384  C 163.09874812761942 306.16373856862384  162.8791622320811 300.6483213106791  162.8791622320811 300.6483213106791  Z " stroke-width="0" stroke-dasharray="0" stroke="rgba(121, 121, 121, 1)" fill="none" class="stroke" mask="url(#Clip23)" />
    <path d="M 166.3408366839091 299.2404143015543  C 166.30208668357227 299.085414300207  166.21166410157454 298.9820892473411  166.08249743779498 298.95625591278076  C 166.08249743779498 298.95625591278076  165.90166489283243 298.98207505544025  165.90166489283243 298.98207505544025  L 163.52499802907306 300.18333037694293  L 163.39582840601602 300.3125  L 163.35708737373352 300.4545791943868  L 163.5895828406016 306.0087498029073  L 163.65416765213013 306.16373856862384  L 163.7575058142344 306.26708904902137  C 163.7575058142344 306.26708904902137  166.35374625523883 307.4554101626078  166.35374625523883 307.4554101626078  C 166.50874625658614 307.5070768317285  166.65083323411332 307.45541765703814  166.728333234787 307.35208431879676  C 166.728333234787 307.35208431879676  166.7799961566925 307.17125177383423  166.7799961566925 307.17125177383423  C 166.7799961566925 307.17125177383423  166.3408366839091 299.2404143015543  166.3408366839091 299.2404143015543  Z " stroke-width="0" stroke-dasharray="0" stroke="rgba(121, 121, 121, 1)" fill="none" class="stroke" mask="url(#Clip23)" />
    <path d="M 159.22374566396076 300.17042080561316  C 159.22374566396076 300.17042080561316  156.84707880020142 298.98207505544025  156.84707880020142 298.98207505544025  C 156.7884075754167 298.9554205514529  156.7226619872963 298.94858344006934  156.6597545146942 298.9625628789266  C 156.59684704209212 298.9765423177838  156.540195858009 299.01058692407486  156.4983355998993 299.0595817565918  C 156.4983355998993 299.0595817565918  156.42082889874774 299.2404143015543  156.42082889874774 299.2404143015543  C 156.42082889874774 299.2404143015543  155.98166942596436 307.17125177383423  155.98166942596436 307.17125177383423  C 155.98166942596436 307.32625177518156  156.07208865772313 307.4295872727331  156.20125532150269 307.4812539418538  C 156.20125532150269 307.4812539418538  156.39499743779498 307.4554101626078  156.39499743779498 307.4554101626078  L 158.99125019709268 306.2541548411051  L 159.12041982014972 306.15082899729407  L 159.15916085243225 306.0087498029073  L 159.39166863759357 300.4545791943868  L 159.35291528701782 300.29959042867023  L 159.22374566396076 300.17042080561316  Z " stroke-width="0" stroke-dasharray="0" stroke="rgba(121, 121, 121, 1)" fill="none" class="stroke" mask="url(#Clip23)" />
  </g>
</svg>