<?xml version="1.0" encoding="utf-8"?>
<svg version="1.1" xmlns:xlink="http://www.w3.org/1999/xlink" width="233px" height="233px" xmlns="http://www.w3.org/2000/svg">
  <defs>
    <pattern id="BGPattern" patternUnits="userSpaceOnUse" alignment="0 0" imageRepeat="None" />
    <mask fill="white" id="Clip24">
      <path d="M 51.77777777777777 0  C 51.77777777777777 0  220.05555555555551 0  220.05555555555551 0  C 223.2260811428229 0.00041824219685319497  226.2861899650759 1.1644329577684402  228.65547540452744 3.2712597979439626  C 231.02476084397898 5.378086638119485  232.53843780120627 8.28119295173221  232.90938928392197 11.429943111207749  C 232.90938928392197 11.429943111207749  233 12.944444444444443  233 12.944444444444443  C 233 12.944444444444443  233 194.16666666666669  233 194.16666666666669  C 233.00055177484944 204.07189545035362  229.21601347790823 213.60293067826166  222.42071745130747 220.80969842274982  C 215.62542142470673 228.016466167238  206.33306488394734 232.35418189089327  196.4448965920342 232.93528864118784  C 196.4448965920342 232.93528864118784  194.16666666666669 233  194.16666666666669 233  C 194.16666666666669 233  32.36111111111111 233  32.36111111111111 233  C 24.145036896069847 233.00126526786008  16.236074679427674 229.87738336291577  10.238470832506817 224.26199139489066  C 4.240866985585955 218.64659942686555  0.6036980911675427 210.96014924512968  0.06472370359632704 202.76177204979788  C 0.06472370359632704 202.76177204979788  0 200.63888888888889  0 200.63888888888889  C 0 200.63888888888889  0 103.55555555555554  0 103.55555555555554  C 0.00041824219685319497 100.38502996828821  1.1644329577684402 97.32490880125098  3.2712597979439626 94.95562336179944  C 5.378086638119485 92.58633792234791  8.28119295173221 91.07267330990484  11.429943111207749 90.70172182718912  C 11.429943111207749 90.70172182718912  12.944444444444443 91  12.944444444444443 91  L 38.83333333333333 91  C 38.83333333333333 91  38.83333333333333 12.944444444444443  38.83333333333333 12.944444444444443  C 38.83375157553019 9.773918857177097  39.997763204905716 6.7138038625319805  42.10459004508124 4.344518423080444  C 44.21141688525677 1.9752329836289089  47.114526285065544 0.46156219879372246  50.26327644454108 0.09061071607801649  C 50.26327644454108 0.09061071607801649  51.77777777777777 0  51.77777777777777 0  Z M 39 200.63888888888889  L 39 116  L 25.888888888888886 116  C 25.888888888888886 116  25.888888888888886 200.63888888888889  25.888888888888886 200.63888888888889  C 25.885911495940586 202.25624436015883  26.488592429707445 203.81611451134083  27.578247918023003 205.0113126966688  C 28.667903406338556 206.2065108819968  30.16555893131428 206.95040833779302  31.7763016488817 207.09654426574707  C 33.38704436644912 207.24268019370112  34.99413486032022 206.78046252785455  36.28109857771131 205.80088509453665  C 37.5680622951024 204.82130766121875  38.44163202846215 203.39537417516112  38.729779111014466 201.80389086405438  C 38.729779111014466 201.80389086405438  39 200.63888888888889  39 200.63888888888889  Z M 164.48643530739676 146.18023135926987  C 162.0588811362783 143.7526771881514  158.76641357772883 142.38888888888889  155.33333333333331 142.38888888888889  C 155.33333333333331 142.38888888888889  90.6111111111111 142.38888888888889  90.6111111111111 142.38888888888889  C 87.17803086671563 142.38888888888889  83.88556330816611 143.7526771881514  81.45800913704765 146.18023135926987  C 79.03045496592918 148.60778553038836  77.66666666666666 151.90025308893786  77.66666666666666 155.33333333333331  C 77.66666666666666 158.76641357772883  79.03045496592918 162.0588811362783  81.45800913704765 164.48643530739676  C 83.88556330816611 166.91398947851525  87.17803086671563 168.27777777777777  90.6111111111111 168.27777777777777  C 90.6111111111111 168.27777777777777  155.33333333333331 168.27777777777777  155.33333333333331 168.27777777777777  C 158.76641357772883 168.27777777777777  162.0588811362783 166.91398947851525  164.48643530739676 164.48643530739676  C 166.91398947851525 162.0588811362783  168.27777777777777 158.76641357772883  168.27777777777777 155.33333333333331  C 168.27777777777777 151.90025308893786  166.91398947851525 148.60778553038836  164.48643530739676 146.18023135926987  Z M 182.736729727851 51.86838849385579  C 182.736729727851 51.86838849385579  181.2222222222222 51.77777777777777  181.2222222222222 51.77777777777777  C 181.2222222222222 51.77777777777777  90.6111111111111 51.77777777777777  90.6111111111111 51.77777777777777  C 87.44058552384375 51.77819601997463  84.38046435680654 52.94220764935016  82.011178917355 55.04903448952569  C 79.64189347790345 57.15586132970121  78.12822886546039 60.05897072950999  77.75727738274468 63.20772088898552  C 77.75727738274468 63.20772088898552  77.66666666666666 64.72222222222221  77.66666666666666 64.72222222222221  C 77.66666666666666 64.72222222222221  77.66666666666666 103.55555555555554  77.66666666666666 103.55555555555554  C 77.66708490886353 106.72608114282289  78.83109653823905 109.78620230986012  80.93792337841457 112.15548774931165  C 83.0447502185901 114.52477318876319  85.94786579079098 116.03843780120626  89.09661595026651 116.40938928392198  C 89.09661595026651 116.40938928392198  90.6111111111111 116.5  90.6111111111111 116.5  C 90.6111111111111 116.5  181.2222222222222 116.5  181.2222222222222 116.5  C 184.39274780948952 116.49958175780316  187.45285663174258 115.33557012842759  189.8221420711941 113.22874328825208  C 192.19142751064564 111.12191644807658  193.70510446787293 108.21880087587567  194.07605595058862 105.07005071640015  C 194.07605595058862 105.07005071640015  194.16666666666669 103.55555555555554  194.16666666666669 103.55555555555554  C 194.16666666666669 103.55555555555554  194.16666666666669 64.72222222222221  194.16666666666669 64.72222222222221  C 194.1662484244698 61.55169663495488  193.00222445031005 58.49158164030976  190.89539761013452 56.122296200858216  C 188.78857076995902 53.753010761406685  185.88547988732654 52.2393399765715  182.736729727851 51.86838849385579  Z M 104 78  L 168 78  L 168 91  L 104 91  L 104 78  Z " fill-rule="evenodd" />
    </mask>
  </defs>
  <g transform="matrix(1 0 0 1 -39 -39 )">
    <path d="M 51.77777777777777 0  C 51.77777777777777 0  220.05555555555551 0  220.05555555555551 0  C 223.2260811428229 0.00041824219685319497  226.2861899650759 1.1644329577684402  228.65547540452744 3.2712597979439626  C 231.02476084397898 5.378086638119485  232.53843780120627 8.28119295173221  232.90938928392197 11.429943111207749  C 232.90938928392197 11.429943111207749  233 12.944444444444443  233 12.944444444444443  C 233 12.944444444444443  233 194.16666666666669  233 194.16666666666669  C 233.00055177484944 204.07189545035362  229.21601347790823 213.60293067826166  222.42071745130747 220.80969842274982  C 215.62542142470673 228.016466167238  206.33306488394734 232.35418189089327  196.4448965920342 232.93528864118784  C 196.4448965920342 232.93528864118784  194.16666666666669 233  194.16666666666669 233  C 194.16666666666669 233  32.36111111111111 233  32.36111111111111 233  C 24.145036896069847 233.00126526786008  16.236074679427674 229.87738336291577  10.238470832506817 224.26199139489066  C 4.240866985585955 218.64659942686555  0.6036980911675427 210.96014924512968  0.06472370359632704 202.76177204979788  C 0.06472370359632704 202.76177204979788  0 200.63888888888889  0 200.63888888888889  C 0 200.63888888888889  0 103.55555555555554  0 103.55555555555554  C 0.00041824219685319497 100.38502996828821  1.1644329577684402 97.32490880125098  3.2712597979439626 94.95562336179944  C 5.378086638119485 92.58633792234791  8.28119295173221 91.07267330990484  11.429943111207749 90.70172182718912  C 11.429943111207749 90.70172182718912  12.944444444444443 91  12.944444444444443 91  L 38.83333333333333 91  C 38.83333333333333 91  38.83333333333333 12.944444444444443  38.83333333333333 12.944444444444443  C 38.83375157553019 9.773918857177097  39.997763204905716 6.7138038625319805  42.10459004508124 4.344518423080444  C 44.21141688525677 1.9752329836289089  47.114526285065544 0.46156219879372246  50.26327644454108 0.09061071607801649  C 50.26327644454108 0.09061071607801649  51.77777777777777 0  51.77777777777777 0  Z M 39 200.63888888888889  L 39 116  L 25.888888888888886 116  C 25.888888888888886 116  25.888888888888886 200.63888888888889  25.888888888888886 200.63888888888889  C 25.885911495940586 202.25624436015883  26.488592429707445 203.81611451134083  27.578247918023003 205.0113126966688  C 28.667903406338556 206.2065108819968  30.16555893131428 206.95040833779302  31.7763016488817 207.09654426574707  C 33.38704436644912 207.24268019370112  34.99413486032022 206.78046252785455  36.28109857771131 205.80088509453665  C 37.5680622951024 204.82130766121875  38.44163202846215 203.39537417516112  38.729779111014466 201.80389086405438  C 38.729779111014466 201.80389086405438  39 200.63888888888889  39 200.63888888888889  Z M 164.48643530739676 146.18023135926987  C 162.0588811362783 143.7526771881514  158.76641357772883 142.38888888888889  155.33333333333331 142.38888888888889  C 155.33333333333331 142.38888888888889  90.6111111111111 142.38888888888889  90.6111111111111 142.38888888888889  C 87.17803086671563 142.38888888888889  83.88556330816611 143.7526771881514  81.45800913704765 146.18023135926987  C 79.03045496592918 148.60778553038836  77.66666666666666 151.90025308893786  77.66666666666666 155.33333333333331  C 77.66666666666666 158.76641357772883  79.03045496592918 162.0588811362783  81.45800913704765 164.48643530739676  C 83.88556330816611 166.91398947851525  87.17803086671563 168.27777777777777  90.6111111111111 168.27777777777777  C 90.6111111111111 168.27777777777777  155.33333333333331 168.27777777777777  155.33333333333331 168.27777777777777  C 158.76641357772883 168.27777777777777  162.0588811362783 166.91398947851525  164.48643530739676 164.48643530739676  C 166.91398947851525 162.0588811362783  168.27777777777777 158.76641357772883  168.27777777777777 155.33333333333331  C 168.27777777777777 151.90025308893786  166.91398947851525 148.60778553038836  164.48643530739676 146.18023135926987  Z M 182.736729727851 51.86838849385579  C 182.736729727851 51.86838849385579  181.2222222222222 51.77777777777777  181.2222222222222 51.77777777777777  C 181.2222222222222 51.77777777777777  90.6111111111111 51.77777777777777  90.6111111111111 51.77777777777777  C 87.44058552384375 51.77819601997463  84.38046435680654 52.94220764935016  82.011178917355 55.04903448952569  C 79.64189347790345 57.15586132970121  78.12822886546039 60.05897072950999  77.75727738274468 63.20772088898552  C 77.75727738274468 63.20772088898552  77.66666666666666 64.72222222222221  77.66666666666666 64.72222222222221  C 77.66666666666666 64.72222222222221  77.66666666666666 103.55555555555554  77.66666666666666 103.55555555555554  C 77.66708490886353 106.72608114282289  78.83109653823905 109.78620230986012  80.93792337841457 112.15548774931165  C 83.0447502185901 114.52477318876319  85.94786579079098 116.03843780120626  89.09661595026651 116.40938928392198  C 89.09661595026651 116.40938928392198  90.6111111111111 116.5  90.6111111111111 116.5  C 90.6111111111111 116.5  181.2222222222222 116.5  181.2222222222222 116.5  C 184.39274780948952 116.49958175780316  187.45285663174258 115.33557012842759  189.8221420711941 113.22874328825208  C 192.19142751064564 111.12191644807658  193.70510446787293 108.21880087587567  194.07605595058862 105.07005071640015  C 194.07605595058862 105.07005071640015  194.16666666666669 103.55555555555554  194.16666666666669 103.55555555555554  C 194.16666666666669 103.55555555555554  194.16666666666669 64.72222222222221  194.16666666666669 64.72222222222221  C 194.1662484244698 61.55169663495488  193.00222445031005 58.49158164030976  190.89539761013452 56.122296200858216  C 188.78857076995902 53.753010761406685  185.88547988732654 52.2393399765715  182.736729727851 51.86838849385579  Z M 104 78  L 168 78  L 168 91  L 104 91  L 104 78  Z " fill-rule="nonzero" fill="rgba(51, 119, 255, 1)" stroke="none" transform="matrix(1 0 0 1 39 39 )" class="fill" />
    <path d="M 51.77777777777777 0  C 51.77777777777777 0  220.05555555555551 0  220.05555555555551 0  C 223.2260811428229 0.00041824219685319497  226.2861899650759 1.1644329577684402  228.65547540452744 3.2712597979439626  C 231.02476084397898 5.378086638119485  232.53843780120627 8.28119295173221  232.90938928392197 11.429943111207749  C 232.90938928392197 11.429943111207749  233 12.944444444444443  233 12.944444444444443  C 233 12.944444444444443  233 194.16666666666669  233 194.16666666666669  C 233.00055177484944 204.07189545035362  229.21601347790823 213.60293067826166  222.42071745130747 220.80969842274982  C 215.62542142470673 228.016466167238  206.33306488394734 232.35418189089327  196.4448965920342 232.93528864118784  C 196.4448965920342 232.93528864118784  194.16666666666669 233  194.16666666666669 233  C 194.16666666666669 233  32.36111111111111 233  32.36111111111111 233  C 24.145036896069847 233.00126526786008  16.236074679427674 229.87738336291577  10.238470832506817 224.26199139489066  C 4.240866985585955 218.64659942686555  0.6036980911675427 210.96014924512968  0.06472370359632704 202.76177204979788  C 0.06472370359632704 202.76177204979788  0 200.63888888888889  0 200.63888888888889  C 0 200.63888888888889  0 103.55555555555554  0 103.55555555555554  C 0.00041824219685319497 100.38502996828821  1.1644329577684402 97.32490880125098  3.2712597979439626 94.95562336179944  C 5.378086638119485 92.58633792234791  8.28119295173221 91.07267330990484  11.429943111207749 90.70172182718912  C 11.429943111207749 90.70172182718912  12.944444444444443 91  12.944444444444443 91  L 38.83333333333333 91  C 38.83333333333333 91  38.83333333333333 12.944444444444443  38.83333333333333 12.944444444444443  C 38.83375157553019 9.773918857177097  39.997763204905716 6.7138038625319805  42.10459004508124 4.344518423080444  C 44.21141688525677 1.9752329836289089  47.114526285065544 0.46156219879372246  50.26327644454108 0.09061071607801649  C 50.26327644454108 0.09061071607801649  51.77777777777777 0  51.77777777777777 0  Z " stroke-width="0" stroke-dasharray="0" stroke="rgba(121, 121, 121, 1)" fill="none" transform="matrix(1 0 0 1 39 39 )" class="stroke" mask="url(#Clip24)" />
    <path d="M 39 200.63888888888889  L 39 116  L 25.888888888888886 116  C 25.888888888888886 116  25.888888888888886 200.63888888888889  25.888888888888886 200.63888888888889  C 25.885911495940586 202.25624436015883  26.488592429707445 203.81611451134083  27.578247918023003 205.0113126966688  C 28.667903406338556 206.2065108819968  30.16555893131428 206.95040833779302  31.7763016488817 207.09654426574707  C 33.38704436644912 207.24268019370112  34.99413486032022 206.78046252785455  36.28109857771131 205.80088509453665  C 37.5680622951024 204.82130766121875  38.44163202846215 203.39537417516112  38.729779111014466 201.80389086405438  C 38.729779111014466 201.80389086405438  39 200.63888888888889  39 200.63888888888889  Z " stroke-width="0" stroke-dasharray="0" stroke="rgba(121, 121, 121, 1)" fill="none" transform="matrix(1 0 0 1 39 39 )" class="stroke" mask="url(#Clip24)" />
    <path d="M 164.48643530739676 146.18023135926987  C 162.0588811362783 143.7526771881514  158.76641357772883 142.38888888888889  155.33333333333331 142.38888888888889  C 155.33333333333331 142.38888888888889  90.6111111111111 142.38888888888889  90.6111111111111 142.38888888888889  C 87.17803086671563 142.38888888888889  83.88556330816611 143.7526771881514  81.45800913704765 146.18023135926987  C 79.03045496592918 148.60778553038836  77.66666666666666 151.90025308893786  77.66666666666666 155.33333333333331  C 77.66666666666666 158.76641357772883  79.03045496592918 162.0588811362783  81.45800913704765 164.48643530739676  C 83.88556330816611 166.91398947851525  87.17803086671563 168.27777777777777  90.6111111111111 168.27777777777777  C 90.6111111111111 168.27777777777777  155.33333333333331 168.27777777777777  155.33333333333331 168.27777777777777  C 158.76641357772883 168.27777777777777  162.0588811362783 166.91398947851525  164.48643530739676 164.48643530739676  C 166.91398947851525 162.0588811362783  168.27777777777777 158.76641357772883  168.27777777777777 155.33333333333331  C 168.27777777777777 151.90025308893786  166.91398947851525 148.60778553038836  164.48643530739676 146.18023135926987  Z " stroke-width="0" stroke-dasharray="0" stroke="rgba(121, 121, 121, 1)" fill="none" transform="matrix(1 0 0 1 39 39 )" class="stroke" mask="url(#Clip24)" />
    <path d="M 182.736729727851 51.86838849385579  C 182.736729727851 51.86838849385579  181.2222222222222 51.77777777777777  181.2222222222222 51.77777777777777  C 181.2222222222222 51.77777777777777  90.6111111111111 51.77777777777777  90.6111111111111 51.77777777777777  C 87.44058552384375 51.77819601997463  84.38046435680654 52.94220764935016  82.011178917355 55.04903448952569  C 79.64189347790345 57.15586132970121  78.12822886546039 60.05897072950999  77.75727738274468 63.20772088898552  C 77.75727738274468 63.20772088898552  77.66666666666666 64.72222222222221  77.66666666666666 64.72222222222221  C 77.66666666666666 64.72222222222221  77.66666666666666 103.55555555555554  77.66666666666666 103.55555555555554  C 77.66708490886353 106.72608114282289  78.83109653823905 109.78620230986012  80.93792337841457 112.15548774931165  C 83.0447502185901 114.52477318876319  85.94786579079098 116.03843780120626  89.09661595026651 116.40938928392198  C 89.09661595026651 116.40938928392198  90.6111111111111 116.5  90.6111111111111 116.5  C 90.6111111111111 116.5  181.2222222222222 116.5  181.2222222222222 116.5  C 184.39274780948952 116.49958175780316  187.45285663174258 115.33557012842759  189.8221420711941 113.22874328825208  C 192.19142751064564 111.12191644807658  193.70510446787293 108.21880087587567  194.07605595058862 105.07005071640015  C 194.07605595058862 105.07005071640015  194.16666666666669 103.55555555555554  194.16666666666669 103.55555555555554  C 194.16666666666669 103.55555555555554  194.16666666666669 64.72222222222221  194.16666666666669 64.72222222222221  C 194.1662484244698 61.55169663495488  193.00222445031005 58.49158164030976  190.89539761013452 56.122296200858216  C 188.78857076995902 53.753010761406685  185.88547988732654 52.2393399765715  182.736729727851 51.86838849385579  Z " stroke-width="0" stroke-dasharray="0" stroke="rgba(121, 121, 121, 1)" fill="none" transform="matrix(1 0 0 1 39 39 )" class="stroke" mask="url(#Clip24)" />
    <path d="M 104 78  L 168 78  L 168 91  L 104 91  L 104 78  Z " stroke-width="0" stroke-dasharray="0" stroke="rgba(121, 121, 121, 1)" fill="none" transform="matrix(1 0 0 1 39 39 )" class="stroke" mask="url(#Clip24)" />
  </g>
</svg>