<?xml version="1.0" encoding="utf-8"?>
<svg version="1.1" xmlns:xlink="http://www.w3.org/1999/xlink" width="32px" height="32px" xmlns="http://www.w3.org/2000/svg">
  <defs>
    <pattern id="BGPattern" patternUnits="userSpaceOnUse" alignment="0 0" imageRepeat="None" />
    <mask fill="white" id="Clip21">
      <path d="M 0 0  L 32 0  L 32 32  L 0 32  L 0 0  Z M 16.81333287556966 31.03466542561849  C 16.810666208776333 31.02133209258318  16.801333150515955 31.01199922695135  16.79199981689453 31.010665893554688  C 16.79199981689453 31.010665893554688  16.775999704996742 31.013333638509113  16.775999704996742 31.013333638509113  L 16.68133290608724 31.060000101725258  L 16.654666900634766 31.065333048502602  L 16.636000315348305 31.060000101725258  C 16.636000315348305 31.060000101725258  16.5413335164388 31.012001037597656  16.5413335164388 31.012001037597656  C 16.528000183403492 31.008001037562888  16.515999959160883 31.011999186128374  16.509333292643227 31.019999186197914  C 16.509333292643227 31.019999186197914  16.504000345865883 31.03333282470703  16.504000345865883 31.03333282470703  L 16.48133341471354 31.603998819986977  L 16.488000233968098 31.630666097005207  L 16.50133387247721 31.648000081380207  L 16.639999389648438 31.746665954589844  L 16.65999984741211 31.751998901367188  L 16.675999959309895 31.746665954589844  L 16.814666748046875 31.648000081380207  L 16.83066685994466 31.62666575113932  L 16.835999806722004 31.603998819986977  C 16.835999806722004 31.603998819986977  16.81333287556966 31.03466542561849  16.81333287556966 31.03466542561849  Z M 17.17066701253255 30.889333089192707  C 17.166667012497783 30.87333308905363  17.15733306854963 30.86266727714489  17.14399973551432 30.860000610351562  C 17.14399973551432 30.860000610351562  17.125333150227863 30.862665812174477  17.125333150227863 30.862665812174477  L 16.879999796549477 30.986666361490883  L 16.866666158040363 31  L 16.862667083740234 31.01466623942057  L 16.886666615804035 31.587999979654946  L 16.893333435058594 31.603998819986977  L 16.904000600179035 31.614667256673176  C 16.904000600179035 31.614667256673176  17.171999613444008 31.737332661946613  17.171999613444008 31.737332661946613  C 17.187999613583084 31.742665995533265  17.2026666564246 31.737333435565233  17.21066665649414 31.726666768391926  C 17.21066665649414 31.726666768391926  17.215999603271484 31.70800018310547  17.215999603271484 31.70800018310547  C 17.215999603271484 31.70800018310547  17.17066701253255 30.889333089192707  17.17066701253255 30.889333089192707  Z M 16.435999552408852 30.985333760579426  C 16.435999552408852 30.985333760579426  16.19066619873047 30.862665812174477  16.19066619873047 30.862665812174477  C 16.184609814236563 30.85991437950482  16.1778231728822 30.859208613168445  16.171329498291016 30.860651652018227  C 16.164835823699832 30.86209469086801  16.158987959536415 30.865608972807724  16.154666900634766 30.87066650390625  C 16.154666900634766 30.87066650390625  16.146666208902992 30.889333089192707  16.146666208902992 30.889333089192707  C 16.146666208902992 30.889333089192707  16.101333618164062 31.70800018310547  16.101333618164062 31.70800018310547  C 16.101333618164062 31.724000183244545  16.110667216281097 31.734667073314387  16.124000549316406 31.74000040690104  C 16.124000549316406 31.74000040690104  16.14399973551432 31.737332661946613  16.14399973551432 31.737332661946613  L 16.41200002034505 31.613332112630207  L 16.425333658854164 31.60266621907552  L 16.429332733154297 31.587999979654946  L 16.453333536783852 31.01466623942057  L 16.44933319091797 30.99866739908854  L 16.435999552408852 30.985333760579426  Z " fill-rule="evenodd" />
    </mask>
  </defs>
  <g>
    <path d="M 0 0  L 32 0  L 32 32  L 0 32  L 0 0  Z M 16.81333287556966 31.03466542561849  C 16.810666208776333 31.02133209258318  16.801333150515955 31.01199922695135  16.79199981689453 31.010665893554688  C 16.79199981689453 31.010665893554688  16.775999704996742 31.013333638509113  16.775999704996742 31.013333638509113  L 16.68133290608724 31.060000101725258  L 16.654666900634766 31.065333048502602  L 16.636000315348305 31.060000101725258  C 16.636000315348305 31.060000101725258  16.5413335164388 31.012001037597656  16.5413335164388 31.012001037597656  C 16.528000183403492 31.008001037562888  16.515999959160883 31.011999186128374  16.509333292643227 31.019999186197914  C 16.509333292643227 31.019999186197914  16.504000345865883 31.03333282470703  16.504000345865883 31.03333282470703  L 16.48133341471354 31.603998819986977  L 16.488000233968098 31.630666097005207  L 16.50133387247721 31.648000081380207  L 16.639999389648438 31.746665954589844  L 16.65999984741211 31.751998901367188  L 16.675999959309895 31.746665954589844  L 16.814666748046875 31.648000081380207  L 16.83066685994466 31.62666575113932  L 16.835999806722004 31.603998819986977  C 16.835999806722004 31.603998819986977  16.81333287556966 31.03466542561849  16.81333287556966 31.03466542561849  Z M 17.17066701253255 30.889333089192707  C 17.166667012497783 30.87333308905363  17.15733306854963 30.86266727714489  17.14399973551432 30.860000610351562  C 17.14399973551432 30.860000610351562  17.125333150227863 30.862665812174477  17.125333150227863 30.862665812174477  L 16.879999796549477 30.986666361490883  L 16.866666158040363 31  L 16.862667083740234 31.01466623942057  L 16.886666615804035 31.587999979654946  L 16.893333435058594 31.603998819986977  L 16.904000600179035 31.614667256673176  C 16.904000600179035 31.614667256673176  17.171999613444008 31.737332661946613  17.171999613444008 31.737332661946613  C 17.187999613583084 31.742665995533265  17.2026666564246 31.737333435565233  17.21066665649414 31.726666768391926  C 17.21066665649414 31.726666768391926  17.215999603271484 31.70800018310547  17.215999603271484 31.70800018310547  C 17.215999603271484 31.70800018310547  17.17066701253255 30.889333089192707  17.17066701253255 30.889333089192707  Z M 16.435999552408852 30.985333760579426  C 16.435999552408852 30.985333760579426  16.19066619873047 30.862665812174477  16.19066619873047 30.862665812174477  C 16.184609814236563 30.85991437950482  16.1778231728822 30.859208613168445  16.171329498291016 30.860651652018227  C 16.164835823699832 30.86209469086801  16.158987959536415 30.865608972807724  16.154666900634766 30.87066650390625  C 16.154666900634766 30.87066650390625  16.146666208902992 30.889333089192707  16.146666208902992 30.889333089192707  C 16.146666208902992 30.889333089192707  16.101333618164062 31.70800018310547  16.101333618164062 31.70800018310547  C 16.101333618164062 31.724000183244545  16.110667216281097 31.734667073314387  16.124000549316406 31.74000040690104  C 16.124000549316406 31.74000040690104  16.14399973551432 31.737332661946613  16.14399973551432 31.737332661946613  L 16.41200002034505 31.613332112630207  L 16.425333658854164 31.60266621907552  L 16.429332733154297 31.587999979654946  L 16.453333536783852 31.01466623942057  L 16.44933319091797 30.99866739908854  L 16.435999552408852 30.985333760579426  Z " fill-rule="nonzero" fill="rgba(255, 255, 255, 0)" stroke="none" class="fill" />
    <path d="M 0 0  L 32 0  L 32 32  L 0 32  L 0 0  Z " stroke-width="0" stroke-dasharray="0" stroke="rgba(121, 121, 121, 1)" fill="none" class="stroke" mask="url(#Clip21)" />
    <path d="M 16.81333287556966 31.03466542561849  C 16.810666208776333 31.02133209258318  16.801333150515955 31.01199922695135  16.79199981689453 31.010665893554688  C 16.79199981689453 31.010665893554688  16.775999704996742 31.013333638509113  16.775999704996742 31.013333638509113  L 16.68133290608724 31.060000101725258  L 16.654666900634766 31.065333048502602  L 16.636000315348305 31.060000101725258  C 16.636000315348305 31.060000101725258  16.5413335164388 31.012001037597656  16.5413335164388 31.012001037597656  C 16.528000183403492 31.008001037562888  16.515999959160883 31.011999186128374  16.509333292643227 31.019999186197914  C 16.509333292643227 31.019999186197914  16.504000345865883 31.03333282470703  16.504000345865883 31.03333282470703  L 16.48133341471354 31.603998819986977  L 16.488000233968098 31.630666097005207  L 16.50133387247721 31.648000081380207  L 16.639999389648438 31.746665954589844  L 16.65999984741211 31.751998901367188  L 16.675999959309895 31.746665954589844  L 16.814666748046875 31.648000081380207  L 16.83066685994466 31.62666575113932  L 16.835999806722004 31.603998819986977  C 16.835999806722004 31.603998819986977  16.81333287556966 31.03466542561849  16.81333287556966 31.03466542561849  Z " stroke-width="0" stroke-dasharray="0" stroke="rgba(121, 121, 121, 1)" fill="none" class="stroke" mask="url(#Clip21)" />
    <path d="M 17.17066701253255 30.889333089192707  C 17.166667012497783 30.87333308905363  17.15733306854963 30.86266727714489  17.14399973551432 30.860000610351562  C 17.14399973551432 30.860000610351562  17.125333150227863 30.862665812174477  17.125333150227863 30.862665812174477  L 16.879999796549477 30.986666361490883  L 16.866666158040363 31  L 16.862667083740234 31.01466623942057  L 16.886666615804035 31.587999979654946  L 16.893333435058594 31.603998819986977  L 16.904000600179035 31.614667256673176  C 16.904000600179035 31.614667256673176  17.171999613444008 31.737332661946613  17.171999613444008 31.737332661946613  C 17.187999613583084 31.742665995533265  17.2026666564246 31.737333435565233  17.21066665649414 31.726666768391926  C 17.21066665649414 31.726666768391926  17.215999603271484 31.70800018310547  17.215999603271484 31.70800018310547  C 17.215999603271484 31.70800018310547  17.17066701253255 30.889333089192707  17.17066701253255 30.889333089192707  Z " stroke-width="0" stroke-dasharray="0" stroke="rgba(121, 121, 121, 1)" fill="none" class="stroke" mask="url(#Clip21)" />
    <path d="M 16.435999552408852 30.985333760579426  C 16.435999552408852 30.985333760579426  16.19066619873047 30.862665812174477  16.19066619873047 30.862665812174477  C 16.184609814236563 30.85991437950482  16.1778231728822 30.859208613168445  16.171329498291016 30.860651652018227  C 16.164835823699832 30.86209469086801  16.158987959536415 30.865608972807724  16.154666900634766 30.87066650390625  C 16.154666900634766 30.87066650390625  16.146666208902992 30.889333089192707  16.146666208902992 30.889333089192707  C 16.146666208902992 30.889333089192707  16.101333618164062 31.70800018310547  16.101333618164062 31.70800018310547  C 16.101333618164062 31.724000183244545  16.110667216281097 31.734667073314387  16.124000549316406 31.74000040690104  C 16.124000549316406 31.74000040690104  16.14399973551432 31.737332661946613  16.14399973551432 31.737332661946613  L 16.41200002034505 31.613332112630207  L 16.425333658854164 31.60266621907552  L 16.429332733154297 31.587999979654946  L 16.453333536783852 31.01466623942057  L 16.44933319091797 30.99866739908854  L 16.435999552408852 30.985333760579426  Z " stroke-width="0" stroke-dasharray="0" stroke="rgba(121, 121, 121, 1)" fill="none" class="stroke" mask="url(#Clip21)" />
  </g>
</svg>