<?xml version="1.0" encoding="utf-8"?>
<svg version="1.1" xmlns:xlink="http://www.w3.org/1999/xlink" width="24px" height="24px" xmlns="http://www.w3.org/2000/svg">
  <defs>
    <pattern id="BGPattern" patternUnits="userSpaceOnUse" alignment="0 0" imageRepeat="None" />
    <mask fill="white" id="Clip22">
      <path d="M 5.333333333333333 0  C 5.333333333333333 0  22.666666666666664 0  22.666666666666664 0  C 22.993244409561154 4.308074130676687E-05  23.308448751767475 0.11994159221649167  23.55249532063802 0.3369537989298502  C 23.796541889508564 0.5539660056432087  23.952457112570603 0.8529984156290691  23.99066670735677 1.1773331960042317  C 23.99066670735677 1.1773331960042317  24 1.3333333333333333  24 1.3333333333333333  C 24 1.3333333333333333  24 20  24 20  C 24.000056835177624 21.020281076431274  23.610233147939045 22.002018610636394  22.91028849283854 22.744346618652344  C 22.210343837738034 23.486674626668293  21.25319123268127 23.933477963010468  20.234667460123696 23.993334452311196  C 20.234667460123696 23.993334452311196  20 24  20 24  C 20 24  3.333333333333333 24  3.333333333333333 24  C 2.4870424270629883 24.00013032801992  1.6723853747049966 23.678357084592182  1.0546064376831055 23.099947611490883  C 0.43682750066121423 22.521538138389584  0.06218349436918895 21.729800780614216  0.006666819254557291 20.88533274332682  C 0.006666819254557291 20.88533274332682  0 20.666666666666664  0 20.666666666666664  C 0 20.666666666666664  0 10.666666666666666  0 10.666666666666666  C 4.308074130676687E-05 10.340088923772175  0.11994159221649167 10.024883310000101  0.3369537989298502 9.780836741129557  C 0.5539660056432087 9.536790172259012  0.8529984156290691 9.38087622076273  1.1773331960042317 9.342666625976562  C 1.1773331960042317 9.342666625976562  1.3333333333333333 9.333333333333332  1.3333333333333333 9.333333333333332  L 4 9.333333333333332  C 4 9.333333333333332  4 1.3333333333333333  4 1.3333333333333333  C 4.000043080741307 1.0067555904388428  4.119941274325052 0.691550612449646  4.336953481038411 0.44750404357910156  C 4.55396568775177 0.20345747470855713  4.852998415629068 0.0475428874293963  5.1773331960042315 0.009333292643229166  C 5.1773331960042315 0.009333292643229166  5.333333333333333 0  5.333333333333333 0  Z M 4 20.666666666666664  L 4 12  L 2.6666666666666665 12  C 2.6666666666666665 12  2.6666666666666665 20.666666666666664  2.6666666666666665 20.666666666666664  C 2.6663599824144812 20.83326122164726  2.7284387052059174 20.993934541940686  2.8406778971354165 21.117045084635414  C 2.9529170890649157 21.240155627330143  3.107182035843531 21.316780257970095  3.2730954488118487 21.331832885742188  C 3.4390088617801657 21.34688551351428  3.604546080032984 21.299275110165276  3.737108866373698 21.19837443033854  C 3.8696716527144113 21.097473750511803  3.9596530844767885 20.95059648156166  3.9893334706624346 20.786666870117188  C 3.9893334706624346 20.786666870117188  4 20.666666666666664  4 20.666666666666664  Z M 16.942808787027992 15.057191212972004  C 16.69276028871536 14.80714271465937  16.35362199942271 14.666666666666664  16 14.666666666666664  C 16 14.666666666666664  9.333333333333332 14.666666666666664  9.333333333333332 14.666666666666664  C 8.979711333910624 14.666666666666664  8.64057304461797 14.80714271465937  8.390524546305338 15.057191212972004  C 8.140476047992706 15.307239711284634  8 15.64637800057729  8 16  C 8 16.35362199942271  8.140476047992706 16.69276028871536  8.390524546305338 16.942808787027992  C 8.64057304461797 17.192857285340626  8.979711333910624 17.333333333333332  9.333333333333332 17.333333333333332  C 9.333333333333332 17.333333333333332  16 17.333333333333332  16 17.333333333333332  C 16.35362199942271 17.333333333333332  16.69276028871536 17.192857285340626  16.942808787027992 16.942808787027992  C 17.192857285340626 16.69276028871536  17.333333333333332 16.35362199942271  17.333333333333332 16  C 17.333333333333332 15.64637800057729  17.192857285340626 15.307239711284634  16.942808787027992 15.057191212972004  Z M 18.822667439778645 5.3426666259765625  C 18.822667439778645 5.3426666259765625  18.666666666666664 5.333333333333333  18.666666666666664 5.333333333333333  C 18.666666666666664 5.333333333333333  9.333333333333332 5.333333333333333  9.333333333333332 5.333333333333333  C 9.006755590438841 5.33337641407464  8.691549976666767 5.453274607658385  8.447503407796223 5.670286814371744  C 8.203456838925678 5.887299021085103  8.047542887429396 6.186331748962402  8.009333292643229 6.5106665293375645  C 8.009333292643229 6.5106665293375645  8 6.666666666666666  8 6.666666666666666  C 8 6.666666666666666  8 10.666666666666666  8 10.666666666666666  C 8.000043080741307 10.993244409561157  8.119941274325052 11.308450023333231  8.33695348103841 11.552496592203775  C 8.553965687751768 11.79654316107432  8.852999051411947 11.952457112570603  9.17733383178711 11.99066670735677  C 9.17733383178711 11.99066670735677  9.333333333333332 12  9.333333333333332 12  C 9.333333333333332 12  18.666666666666664 12  18.666666666666664 12  C 18.993244409561154 11.999956919258693  19.308448751767475 11.880058725674946  19.55249532063802 11.663046518961588  C 19.796541889508564 11.44603431224823  19.952457112570603 11.147000948588053  19.99066670735677 10.82266616821289  C 19.99066670735677 10.82266616821289  20 10.666666666666666  20 10.666666666666666  C 20 10.666666666666666  20 6.666666666666666  20 6.666666666666666  C 19.999956919258693 6.340088923772177  19.880057454109192 6.02488394578298  19.663045247395832 5.780837376912435  C 19.446033040682472 5.53679080804189  19.14700222015381 5.38087622076273  18.822667439778645 5.3426666259765625  Z M 10.666666666666666 8  L 17.333333333333332 8  L 17.333333333333332 9.333333333333332  L 10.666666666666666 9.333333333333332  L 10.666666666666666 8  Z " fill-rule="evenodd" />
    </mask>
  </defs>
  <g transform="matrix(1 0 0 1 -4 -4 )">
    <path d="M 5.333333333333333 0  C 5.333333333333333 0  22.666666666666664 0  22.666666666666664 0  C 22.993244409561154 4.308074130676687E-05  23.308448751767475 0.11994159221649167  23.55249532063802 0.3369537989298502  C 23.796541889508564 0.5539660056432087  23.952457112570603 0.8529984156290691  23.99066670735677 1.1773331960042317  C 23.99066670735677 1.1773331960042317  24 1.3333333333333333  24 1.3333333333333333  C 24 1.3333333333333333  24 20  24 20  C 24.000056835177624 21.020281076431274  23.610233147939045 22.002018610636394  22.91028849283854 22.744346618652344  C 22.210343837738034 23.486674626668293  21.25319123268127 23.933477963010468  20.234667460123696 23.993334452311196  C 20.234667460123696 23.993334452311196  20 24  20 24  C 20 24  3.333333333333333 24  3.333333333333333 24  C 2.4870424270629883 24.00013032801992  1.6723853747049966 23.678357084592182  1.0546064376831055 23.099947611490883  C 0.43682750066121423 22.521538138389584  0.06218349436918895 21.729800780614216  0.006666819254557291 20.88533274332682  C 0.006666819254557291 20.88533274332682  0 20.666666666666664  0 20.666666666666664  C 0 20.666666666666664  0 10.666666666666666  0 10.666666666666666  C 4.308074130676687E-05 10.340088923772175  0.11994159221649167 10.024883310000101  0.3369537989298502 9.780836741129557  C 0.5539660056432087 9.536790172259012  0.8529984156290691 9.38087622076273  1.1773331960042317 9.342666625976562  C 1.1773331960042317 9.342666625976562  1.3333333333333333 9.333333333333332  1.3333333333333333 9.333333333333332  L 4 9.333333333333332  C 4 9.333333333333332  4 1.3333333333333333  4 1.3333333333333333  C 4.000043080741307 1.0067555904388428  4.119941274325052 0.691550612449646  4.336953481038411 0.44750404357910156  C 4.55396568775177 0.20345747470855713  4.852998415629068 0.0475428874293963  5.1773331960042315 0.009333292643229166  C 5.1773331960042315 0.009333292643229166  5.333333333333333 0  5.333333333333333 0  Z M 4 20.666666666666664  L 4 12  L 2.6666666666666665 12  C 2.6666666666666665 12  2.6666666666666665 20.666666666666664  2.6666666666666665 20.666666666666664  C 2.6663599824144812 20.83326122164726  2.7284387052059174 20.993934541940686  2.8406778971354165 21.117045084635414  C 2.9529170890649157 21.240155627330143  3.107182035843531 21.316780257970095  3.2730954488118487 21.331832885742188  C 3.4390088617801657 21.34688551351428  3.604546080032984 21.299275110165276  3.737108866373698 21.19837443033854  C 3.8696716527144113 21.097473750511803  3.9596530844767885 20.95059648156166  3.9893334706624346 20.786666870117188  C 3.9893334706624346 20.786666870117188  4 20.666666666666664  4 20.666666666666664  Z M 16.942808787027992 15.057191212972004  C 16.69276028871536 14.80714271465937  16.35362199942271 14.666666666666664  16 14.666666666666664  C 16 14.666666666666664  9.333333333333332 14.666666666666664  9.333333333333332 14.666666666666664  C 8.979711333910624 14.666666666666664  8.64057304461797 14.80714271465937  8.390524546305338 15.057191212972004  C 8.140476047992706 15.307239711284634  8 15.64637800057729  8 16  C 8 16.35362199942271  8.140476047992706 16.69276028871536  8.390524546305338 16.942808787027992  C 8.64057304461797 17.192857285340626  8.979711333910624 17.333333333333332  9.333333333333332 17.333333333333332  C 9.333333333333332 17.333333333333332  16 17.333333333333332  16 17.333333333333332  C 16.35362199942271 17.333333333333332  16.69276028871536 17.192857285340626  16.942808787027992 16.942808787027992  C 17.192857285340626 16.69276028871536  17.333333333333332 16.35362199942271  17.333333333333332 16  C 17.333333333333332 15.64637800057729  17.192857285340626 15.307239711284634  16.942808787027992 15.057191212972004  Z M 18.822667439778645 5.3426666259765625  C 18.822667439778645 5.3426666259765625  18.666666666666664 5.333333333333333  18.666666666666664 5.333333333333333  C 18.666666666666664 5.333333333333333  9.333333333333332 5.333333333333333  9.333333333333332 5.333333333333333  C 9.006755590438841 5.33337641407464  8.691549976666767 5.453274607658385  8.447503407796223 5.670286814371744  C 8.203456838925678 5.887299021085103  8.047542887429396 6.186331748962402  8.009333292643229 6.5106665293375645  C 8.009333292643229 6.5106665293375645  8 6.666666666666666  8 6.666666666666666  C 8 6.666666666666666  8 10.666666666666666  8 10.666666666666666  C 8.000043080741307 10.993244409561157  8.119941274325052 11.308450023333231  8.33695348103841 11.552496592203775  C 8.553965687751768 11.79654316107432  8.852999051411947 11.952457112570603  9.17733383178711 11.99066670735677  C 9.17733383178711 11.99066670735677  9.333333333333332 12  9.333333333333332 12  C 9.333333333333332 12  18.666666666666664 12  18.666666666666664 12  C 18.993244409561154 11.999956919258693  19.308448751767475 11.880058725674946  19.55249532063802 11.663046518961588  C 19.796541889508564 11.44603431224823  19.952457112570603 11.147000948588053  19.99066670735677 10.82266616821289  C 19.99066670735677 10.82266616821289  20 10.666666666666666  20 10.666666666666666  C 20 10.666666666666666  20 6.666666666666666  20 6.666666666666666  C 19.999956919258693 6.340088923772177  19.880057454109192 6.02488394578298  19.663045247395832 5.780837376912435  C 19.446033040682472 5.53679080804189  19.14700222015381 5.38087622076273  18.822667439778645 5.3426666259765625  Z M 10.666666666666666 8  L 17.333333333333332 8  L 17.333333333333332 9.333333333333332  L 10.666666666666666 9.333333333333332  L 10.666666666666666 8  Z " fill-rule="nonzero" fill="rgba(51, 119, 255, 1)" stroke="none" transform="matrix(1 0 0 1 4 4 )" class="fill" />
    <path d="M 5.333333333333333 0  C 5.333333333333333 0  22.666666666666664 0  22.666666666666664 0  C 22.993244409561154 4.308074130676687E-05  23.308448751767475 0.11994159221649167  23.55249532063802 0.3369537989298502  C 23.796541889508564 0.5539660056432087  23.952457112570603 0.8529984156290691  23.99066670735677 1.1773331960042317  C 23.99066670735677 1.1773331960042317  24 1.3333333333333333  24 1.3333333333333333  C 24 1.3333333333333333  24 20  24 20  C 24.000056835177624 21.020281076431274  23.610233147939045 22.002018610636394  22.91028849283854 22.744346618652344  C 22.210343837738034 23.486674626668293  21.25319123268127 23.933477963010468  20.234667460123696 23.993334452311196  C 20.234667460123696 23.993334452311196  20 24  20 24  C 20 24  3.333333333333333 24  3.333333333333333 24  C 2.4870424270629883 24.00013032801992  1.6723853747049966 23.678357084592182  1.0546064376831055 23.099947611490883  C 0.43682750066121423 22.521538138389584  0.06218349436918895 21.729800780614216  0.006666819254557291 20.88533274332682  C 0.006666819254557291 20.88533274332682  0 20.666666666666664  0 20.666666666666664  C 0 20.666666666666664  0 10.666666666666666  0 10.666666666666666  C 4.308074130676687E-05 10.340088923772175  0.11994159221649167 10.024883310000101  0.3369537989298502 9.780836741129557  C 0.5539660056432087 9.536790172259012  0.8529984156290691 9.38087622076273  1.1773331960042317 9.342666625976562  C 1.1773331960042317 9.342666625976562  1.3333333333333333 9.333333333333332  1.3333333333333333 9.333333333333332  L 4 9.333333333333332  C 4 9.333333333333332  4 1.3333333333333333  4 1.3333333333333333  C 4.000043080741307 1.0067555904388428  4.119941274325052 0.691550612449646  4.336953481038411 0.44750404357910156  C 4.55396568775177 0.20345747470855713  4.852998415629068 0.0475428874293963  5.1773331960042315 0.009333292643229166  C 5.1773331960042315 0.009333292643229166  5.333333333333333 0  5.333333333333333 0  Z " stroke-width="0" stroke-dasharray="0" stroke="rgba(121, 121, 121, 1)" fill="none" transform="matrix(1 0 0 1 4 4 )" class="stroke" mask="url(#Clip22)" />
    <path d="M 4 20.666666666666664  L 4 12  L 2.6666666666666665 12  C 2.6666666666666665 12  2.6666666666666665 20.666666666666664  2.6666666666666665 20.666666666666664  C 2.6663599824144812 20.83326122164726  2.7284387052059174 20.993934541940686  2.8406778971354165 21.117045084635414  C 2.9529170890649157 21.240155627330143  3.107182035843531 21.316780257970095  3.2730954488118487 21.331832885742188  C 3.4390088617801657 21.34688551351428  3.604546080032984 21.299275110165276  3.737108866373698 21.19837443033854  C 3.8696716527144113 21.097473750511803  3.9596530844767885 20.95059648156166  3.9893334706624346 20.786666870117188  C 3.9893334706624346 20.786666870117188  4 20.666666666666664  4 20.666666666666664  Z " stroke-width="0" stroke-dasharray="0" stroke="rgba(121, 121, 121, 1)" fill="none" transform="matrix(1 0 0 1 4 4 )" class="stroke" mask="url(#Clip22)" />
    <path d="M 16.942808787027992 15.057191212972004  C 16.69276028871536 14.80714271465937  16.35362199942271 14.666666666666664  16 14.666666666666664  C 16 14.666666666666664  9.333333333333332 14.666666666666664  9.333333333333332 14.666666666666664  C 8.979711333910624 14.666666666666664  8.64057304461797 14.80714271465937  8.390524546305338 15.057191212972004  C 8.140476047992706 15.307239711284634  8 15.64637800057729  8 16  C 8 16.35362199942271  8.140476047992706 16.69276028871536  8.390524546305338 16.942808787027992  C 8.64057304461797 17.192857285340626  8.979711333910624 17.333333333333332  9.333333333333332 17.333333333333332  C 9.333333333333332 17.333333333333332  16 17.333333333333332  16 17.333333333333332  C 16.35362199942271 17.333333333333332  16.69276028871536 17.192857285340626  16.942808787027992 16.942808787027992  C 17.192857285340626 16.69276028871536  17.333333333333332 16.35362199942271  17.333333333333332 16  C 17.333333333333332 15.64637800057729  17.192857285340626 15.307239711284634  16.942808787027992 15.057191212972004  Z " stroke-width="0" stroke-dasharray="0" stroke="rgba(121, 121, 121, 1)" fill="none" transform="matrix(1 0 0 1 4 4 )" class="stroke" mask="url(#Clip22)" />
    <path d="M 18.822667439778645 5.3426666259765625  C 18.822667439778645 5.3426666259765625  18.666666666666664 5.333333333333333  18.666666666666664 5.333333333333333  C 18.666666666666664 5.333333333333333  9.333333333333332 5.333333333333333  9.333333333333332 5.333333333333333  C 9.006755590438841 5.33337641407464  8.691549976666767 5.453274607658385  8.447503407796223 5.670286814371744  C 8.203456838925678 5.887299021085103  8.047542887429396 6.186331748962402  8.009333292643229 6.5106665293375645  C 8.009333292643229 6.5106665293375645  8 6.666666666666666  8 6.666666666666666  C 8 6.666666666666666  8 10.666666666666666  8 10.666666666666666  C 8.000043080741307 10.993244409561157  8.119941274325052 11.308450023333231  8.33695348103841 11.552496592203775  C 8.553965687751768 11.79654316107432  8.852999051411947 11.952457112570603  9.17733383178711 11.99066670735677  C 9.17733383178711 11.99066670735677  9.333333333333332 12  9.333333333333332 12  C 9.333333333333332 12  18.666666666666664 12  18.666666666666664 12  C 18.993244409561154 11.999956919258693  19.308448751767475 11.880058725674946  19.55249532063802 11.663046518961588  C 19.796541889508564 11.44603431224823  19.952457112570603 11.147000948588053  19.99066670735677 10.82266616821289  C 19.99066670735677 10.82266616821289  20 10.666666666666666  20 10.666666666666666  C 20 10.666666666666666  20 6.666666666666666  20 6.666666666666666  C 19.999956919258693 6.340088923772177  19.880057454109192 6.02488394578298  19.663045247395832 5.780837376912435  C 19.446033040682472 5.53679080804189  19.14700222015381 5.38087622076273  18.822667439778645 5.3426666259765625  Z " stroke-width="0" stroke-dasharray="0" stroke="rgba(121, 121, 121, 1)" fill="none" transform="matrix(1 0 0 1 4 4 )" class="stroke" mask="url(#Clip22)" />
    <path d="M 10.666666666666666 8  L 17.333333333333332 8  L 17.333333333333332 9.333333333333332  L 10.666666666666666 9.333333333333332  L 10.666666666666666 8  Z " stroke-width="0" stroke-dasharray="0" stroke="rgba(121, 121, 121, 1)" fill="none" transform="matrix(1 0 0 1 4 4 )" class="stroke" mask="url(#Clip22)" />
  </g>
</svg>